# xmcd CD database file
#
# Track frame offsets:
#	180
#	19268
#	34761
#	53735
#	75163
#	90218
#	103535
#	114272
#	134254
#	151802
#	167534
#	184782
#	211708
#	235903
#
# Disc length: 3308 seconds
#
# Revision: 0
# Processed by: cddbd v1.5.2PL0 Copyright (c) Steve Scherf et al.
# Submitted via: CDex 1.51
#
DISCID=960cea0e
DTITLE=Professor Bottleneck and The Juke Kings - Southern Belle
DYEAR=2000
DGENRE=Blues
TTITLE0=Southern Belle
TTITLE1=Boogie Cure
TTITLE2=Mister Blues
TTITLE3=Soul of a Man
TTITLE4=Hellbilly
TTITLE5=Going to Charleston
TTITLE6=Alligator Shake
TTITLE7=Sweet Nothings
TTITLE8=Railman
TTITLE9=Amazing Grace
TTITLE10=The Letter
TTITLE11=Brand New Porsche
TTITLE12=Jump for Alice
TTITLE13=Half-Star Hotel
EXTD=YEAR: 2000
EXTT0=
EXTT1=
EXTT2=
EXTT3=
EXTT4=
EXTT5=
EXTT6=
EXTT7=
EXTT8=
EXTT9=
EXTT10=
EXTT11=
EXTT12=
EXTT13=
PLAYORDER=
